<mxfile host="app.diagrams.net" modified="2020-09-08T09:26:20.314Z" agent="5.0 (X11)" etag="r9b5pJ2JGJsdCwjEqVkr" version="13.6.6" type="github">
  <diagram id="i5cLFlQuyAoCcmxTe8Lv" name="Page-1">
    <mxGraphModel dx="2272" dy="803" grid="1" gridSize="10" guides="1" tooltips="1" connect="1" arrows="1" fold="1" page="1" pageScale="1" pageWidth="850" pageHeight="1100" math="0" shadow="0">
      <root>
        <mxCell id="0" />
        <mxCell id="1" parent="0" />
        <mxCell id="sDfAXfX4ur97IPnijIAY-20" style="rounded=0;orthogonalLoop=1;jettySize=auto;html=1;exitX=0.5;exitY=0;exitDx=0;exitDy=0;entryX=0;entryY=0.25;entryDx=0;entryDy=0;fontFamily=Courier New;fontSize=16;edgeStyle=orthogonalEdgeStyle;curved=1;fillColor=#dae8fc;strokeWidth=3;strokeColor=#006633;" parent="1" source="sDfAXfX4ur97IPnijIAY-1" target="sDfAXfX4ur97IPnijIAY-2" edge="1">
          <mxGeometry relative="1" as="geometry" />
        </mxCell>
        <mxCell id="sDfAXfX4ur97IPnijIAY-21" style="rounded=0;orthogonalLoop=1;jettySize=auto;html=1;exitX=1;exitY=0.25;exitDx=0;exitDy=0;entryX=0;entryY=0.25;entryDx=0;entryDy=0;fontFamily=Courier New;fontSize=16;fillColor=#dae8fc;strokeWidth=3;strokeColor=#006633;" parent="1" source="sDfAXfX4ur97IPnijIAY-1" target="sDfAXfX4ur97IPnijIAY-8" edge="1">
          <mxGeometry relative="1" as="geometry" />
        </mxCell>
        <mxCell id="sDfAXfX4ur97IPnijIAY-22" style="edgeStyle=orthogonalEdgeStyle;rounded=0;orthogonalLoop=1;jettySize=auto;html=1;exitX=0.75;exitY=1;exitDx=0;exitDy=0;entryX=0;entryY=0.25;entryDx=0;entryDy=0;fontFamily=Courier New;fontSize=16;curved=1;fillColor=#dae8fc;strokeWidth=3;strokeColor=#006633;" parent="1" source="sDfAXfX4ur97IPnijIAY-1" target="sDfAXfX4ur97IPnijIAY-14" edge="1">
          <mxGeometry relative="1" as="geometry" />
        </mxCell>
        <mxCell id="25c5Onu5uvDLUXSiPIYh-6" style="edgeStyle=orthogonalEdgeStyle;rounded=0;orthogonalLoop=1;jettySize=auto;html=1;exitX=0.25;exitY=1;exitDx=0;exitDy=0;fontFamily=Courier New;fontSize=15;strokeWidth=3;strokeColor=#CC5008;entryX=0;entryY=0.5;entryDx=0;entryDy=0;curved=1;" parent="1" source="sDfAXfX4ur97IPnijIAY-1" target="JQfFVvGpdPdvFE5Sovz2-12" edge="1">
          <mxGeometry relative="1" as="geometry">
            <mxPoint x="480.77999999999975" y="580" as="targetPoint" />
          </mxGeometry>
        </mxCell>
        <mxCell id="sDfAXfX4ur97IPnijIAY-1" value="Client" style="rounded=0;whiteSpace=wrap;html=1;fontFamily=Courier New;fontSize=19;strokeWidth=2;fillColor=#E6E6E6;" parent="1" vertex="1">
          <mxGeometry x="110" y="316" width="120" height="60" as="geometry" />
        </mxCell>
        <mxCell id="sDfAXfX4ur97IPnijIAY-57" style="rounded=0;orthogonalLoop=1;jettySize=auto;html=1;exitX=0;exitY=0.75;exitDx=0;exitDy=0;entryX=0.75;entryY=0;entryDx=0;entryDy=0;strokeWidth=3;fontFamily=Courier New;fontSize=16;edgeStyle=orthogonalEdgeStyle;curved=1;strokeColor=#990000;" parent="1" source="sDfAXfX4ur97IPnijIAY-2" target="sDfAXfX4ur97IPnijIAY-1" edge="1">
          <mxGeometry relative="1" as="geometry" />
        </mxCell>
        <mxCell id="sDfAXfX4ur97IPnijIAY-2" value="Endorser 1" style="rounded=0;whiteSpace=wrap;html=1;fontFamily=Courier New;fontSize=16;strokeWidth=2;" parent="1" vertex="1">
          <mxGeometry x="480" y="191" width="160" height="40" as="geometry" />
        </mxCell>
        <mxCell id="sDfAXfX4ur97IPnijIAY-59" style="rounded=0;orthogonalLoop=1;jettySize=auto;html=1;exitX=0;exitY=0.75;exitDx=0;exitDy=0;entryX=1.003;entryY=0.58;entryDx=0;entryDy=0;strokeWidth=3;fontFamily=Courier New;fontSize=16;entryPerimeter=0;strokeColor=#990000;" parent="1" source="sDfAXfX4ur97IPnijIAY-8" target="sDfAXfX4ur97IPnijIAY-1" edge="1">
          <mxGeometry relative="1" as="geometry" />
        </mxCell>
        <mxCell id="sDfAXfX4ur97IPnijIAY-8" value="Endorser 2" style="rounded=0;whiteSpace=wrap;html=1;fontFamily=Courier New;fontSize=16;strokeWidth=2;" parent="1" vertex="1">
          <mxGeometry x="480" y="321" width="160" height="40" as="geometry" />
        </mxCell>
        <mxCell id="sDfAXfX4ur97IPnijIAY-58" style="edgeStyle=orthogonalEdgeStyle;curved=1;rounded=0;orthogonalLoop=1;jettySize=auto;html=1;entryX=0.5;entryY=1;entryDx=0;entryDy=0;strokeWidth=3;fontFamily=Courier New;fontSize=16;strokeColor=#990000;exitX=0.002;exitY=0.733;exitDx=0;exitDy=0;exitPerimeter=0;" parent="1" source="sDfAXfX4ur97IPnijIAY-14" target="sDfAXfX4ur97IPnijIAY-1" edge="1">
          <mxGeometry relative="1" as="geometry">
            <Array as="points">
              <mxPoint x="170" y="470" />
            </Array>
            <mxPoint x="471" y="480" as="sourcePoint" />
          </mxGeometry>
        </mxCell>
        <mxCell id="sDfAXfX4ur97IPnijIAY-14" value="Endorser 3" style="rounded=0;whiteSpace=wrap;html=1;fontFamily=Courier New;fontSize=16;strokeWidth=2;" parent="1" vertex="1">
          <mxGeometry x="480" y="441" width="160" height="40" as="geometry" />
        </mxCell>
        <mxCell id="sDfAXfX4ur97IPnijIAY-3" value="Key" style="whiteSpace=wrap;html=1;fontFamily=Courier New;fontSize=16;strokeWidth=2;fontStyle=2" parent="1" vertex="1">
          <mxGeometry x="480" y="232" width="80" height="25" as="geometry" />
        </mxCell>
        <mxCell id="sDfAXfX4ur97IPnijIAY-63" value="R(a,&lt;b style=&quot;font-size: 17px;&quot;&gt;6&lt;/b&gt;)W(a)" style="rounded=1;whiteSpace=wrap;html=1;strokeColor=#990000;strokeWidth=2;fontFamily=Courier New;fontSize=17;fillColor=#FFCCCC;" parent="1" vertex="1">
          <mxGeometry x="328" y="476.5" width="113" height="32" as="geometry" />
        </mxCell>
        <mxCell id="sDfAXfX4ur97IPnijIAY-65" value="R(a,&lt;b style=&quot;font-size: 17px;&quot;&gt;5&lt;/b&gt;)W(a)" style="rounded=1;whiteSpace=wrap;html=1;strokeColor=#990000;strokeWidth=2;fontFamily=Courier New;fontSize=17;fillColor=#FFCCCC;" parent="1" vertex="1">
          <mxGeometry x="328" y="356.5" width="113" height="32" as="geometry" />
        </mxCell>
        <mxCell id="sDfAXfX4ur97IPnijIAY-66" value="R(a,&lt;b style=&quot;font-size: 17px;&quot;&gt;6&lt;/b&gt;)W(a)" style="rounded=1;whiteSpace=wrap;html=1;strokeColor=#990000;strokeWidth=2;fontFamily=Courier New;fontSize=17;fillColor=#FFCCCC;" parent="1" vertex="1">
          <mxGeometry x="328" y="237" width="113" height="32" as="geometry" />
        </mxCell>
        <mxCell id="JQfFVvGpdPdvFE5Sovz2-14" style="edgeStyle=orthogonalEdgeStyle;rounded=0;orthogonalLoop=1;jettySize=auto;html=1;exitX=0.5;exitY=0;exitDx=0;exitDy=0;exitPerimeter=0;entryX=0.5;entryY=1;entryDx=0;entryDy=0;endArrow=none;endFill=0;dashed=1;strokeWidth=2;" edge="1" parent="1" source="25c5Onu5uvDLUXSiPIYh-18" target="JQfFVvGpdPdvFE5Sovz2-13">
          <mxGeometry relative="1" as="geometry" />
        </mxCell>
        <mxCell id="25c5Onu5uvDLUXSiPIYh-18" value="Endorsement Policy Failure" style="shape=card;whiteSpace=wrap;html=1;strokeWidth=2;fillColor=none;fontFamily=Courier New;fontSize=16;size=20;" parent="1" vertex="1">
          <mxGeometry x="485" y="660" width="150" height="60" as="geometry" />
        </mxCell>
        <mxCell id="25c5Onu5uvDLUXSiPIYh-34" value="1" style="ellipse;whiteSpace=wrap;html=1;aspect=fixed;strokeWidth=2;fontFamily=Courier New;fontSize=20;fillColor=#CCE5FF;strokeColor=#006633;" parent="1" vertex="1">
          <mxGeometry x="220" y="201" width="25" height="25" as="geometry" />
        </mxCell>
        <mxCell id="25c5Onu5uvDLUXSiPIYh-35" value="2" style="ellipse;whiteSpace=wrap;html=1;aspect=fixed;strokeWidth=2;fontFamily=Courier New;fontSize=20;fillColor=#CCE5FF;strokeColor=#00458A;" parent="1" vertex="1">
          <mxGeometry x="600" y="150" width="25" height="25" as="geometry" />
        </mxCell>
        <mxCell id="25c5Onu5uvDLUXSiPIYh-36" value="3" style="ellipse;whiteSpace=wrap;html=1;aspect=fixed;strokeColor=#990000;strokeWidth=2;fontFamily=Courier New;fontSize=20;fillColor=#FFCCCC;" parent="1" vertex="1">
          <mxGeometry x="260" y="251.3" width="25" height="25" as="geometry" />
        </mxCell>
        <mxCell id="25c5Onu5uvDLUXSiPIYh-37" value="4" style="ellipse;whiteSpace=wrap;html=1;aspect=fixed;strokeWidth=2;fontFamily=Courier New;fontSize=20;strokeColor=#CC5008;fillColor=#FFE599;" parent="1" vertex="1">
          <mxGeometry x="220" y="538.78" width="25" height="25" as="geometry" />
        </mxCell>
        <mxCell id="sDfAXfX4ur97IPnijIAY-60" value="&lt;b style=&quot;font-size: 16px;&quot;&gt;&lt;font style=&quot;font-size: 16px;&quot;&gt;Transaction Proposal&lt;/font&gt;&lt;/b&gt;" style="rounded=1;whiteSpace=wrap;html=1;strokeWidth=2;fillColor=none;fontFamily=Courier New;fontSize=16;strokeColor=#006633;" parent="1" vertex="1">
          <mxGeometry x="-158" y="201" width="217" height="65.58904109589041" as="geometry" />
        </mxCell>
        <mxCell id="25c5Onu5uvDLUXSiPIYh-13" value="1" style="ellipse;whiteSpace=wrap;html=1;aspect=fixed;strokeWidth=2;fontFamily=Courier New;fontSize=20;fillColor=#CCE5FF;strokeColor=#006633;" parent="1" vertex="1">
          <mxGeometry x="-210" y="216.29575342465753" width="35" height="35" as="geometry" />
        </mxCell>
        <mxCell id="25c5Onu5uvDLUXSiPIYh-22" value="&lt;b style=&quot;font-size: 16px;&quot;&gt;&lt;font style=&quot;font-size: 16px;&quot;&gt;Execution &lt;br style=&quot;font-size: 16px;&quot;&gt;&lt;/font&gt;&lt;/b&gt;" style="rounded=1;whiteSpace=wrap;html=1;strokeWidth=2;fillColor=none;fontFamily=Courier New;fontSize=16;strokeColor=#00458A;" parent="1" vertex="1">
          <mxGeometry x="-158" y="301.56986301369864" width="217" height="65.58904109589041" as="geometry" />
        </mxCell>
        <mxCell id="25c5Onu5uvDLUXSiPIYh-24" value="2" style="ellipse;whiteSpace=wrap;html=1;aspect=fixed;strokeWidth=2;fontFamily=Courier New;fontSize=20;fillColor=#CCE5FF;strokeColor=#00458A;" parent="1" vertex="1">
          <mxGeometry x="-210" y="316.86561643835614" width="35" height="35" as="geometry" />
        </mxCell>
        <mxCell id="sDfAXfX4ur97IPnijIAY-61" value="&lt;b style=&quot;font-size: 16px;&quot;&gt;&lt;font style=&quot;font-size: 16px;&quot;&gt;Endorsement including readset &amp;amp; writeset&lt;br style=&quot;font-size: 16px;&quot;&gt;&lt;/font&gt;&lt;/b&gt;" style="rounded=1;whiteSpace=wrap;html=1;strokeWidth=2;fillColor=none;fontFamily=Courier New;fontSize=16;strokeColor=#990000;" parent="1" vertex="1">
          <mxGeometry x="-158" y="395.5808219178082" width="217" height="87.45205479452054" as="geometry" />
        </mxCell>
        <mxCell id="25c5Onu5uvDLUXSiPIYh-14" value="3" style="ellipse;whiteSpace=wrap;html=1;aspect=fixed;strokeColor=#990000;strokeWidth=2;fontFamily=Courier New;fontSize=20;fillColor=#FFCCCC;" parent="1" vertex="1">
          <mxGeometry x="-210" y="421.8080821917808" width="35" height="35" as="geometry" />
        </mxCell>
        <mxCell id="25c5Onu5uvDLUXSiPIYh-12" value="&lt;b style=&quot;font-size: 16px;&quot;&gt;&lt;font style=&quot;font-size: 16px;&quot;&gt;Block including &lt;font style=&quot;font-size: 16px;&quot; color=&quot;#004020&quot;&gt;Transaction&lt;/font&gt; &amp;amp; &lt;font style=&quot;font-size: 16px;&quot; color=&quot;#990000&quot;&gt;Endorsements&lt;/font&gt;&lt;br style=&quot;font-size: 16px;&quot;&gt;&lt;/font&gt;&lt;/b&gt;" style="rounded=1;whiteSpace=wrap;html=1;strokeWidth=2;fillColor=none;fontFamily=Courier New;fontSize=16;strokeColor=#CC5008;" parent="1" vertex="1">
          <mxGeometry x="-158" y="512.5479452054794" width="217" height="87.45205479452054" as="geometry" />
        </mxCell>
        <mxCell id="25c5Onu5uvDLUXSiPIYh-15" value="4" style="ellipse;whiteSpace=wrap;html=1;aspect=fixed;strokeWidth=2;fontFamily=Courier New;fontSize=20;strokeColor=#CC5008;fillColor=#FFE599;" parent="1" vertex="1">
          <mxGeometry x="-210" y="538.7752054794521" width="35" height="35" as="geometry" />
        </mxCell>
        <mxCell id="JQfFVvGpdPdvFE5Sovz2-1" style="edgeStyle=orthogonalEdgeStyle;curved=1;rounded=0;orthogonalLoop=1;jettySize=auto;html=1;entryX=1;entryY=0.5;entryDx=0;entryDy=0;strokeWidth=3;fontFamily=Courier New;fontSize=16;strokeColor=#00458A;" edge="1" parent="1">
          <mxGeometry relative="1" as="geometry">
            <mxPoint x="627" y="190" as="sourcePoint" />
            <mxPoint x="640.6700000000001" y="209.97" as="targetPoint" />
            <Array as="points">
              <mxPoint x="626.6700000000001" y="168.97" />
              <mxPoint x="669.6700000000001" y="168.97" />
              <mxPoint x="669.6700000000001" y="209.97" />
            </Array>
          </mxGeometry>
        </mxCell>
        <mxCell id="JQfFVvGpdPdvFE5Sovz2-2" style="edgeStyle=orthogonalEdgeStyle;curved=1;rounded=0;orthogonalLoop=1;jettySize=auto;html=1;entryX=1;entryY=0.5;entryDx=0;entryDy=0;strokeWidth=3;fontFamily=Courier New;fontSize=16;strokeColor=#00458A;" edge="1" parent="1">
          <mxGeometry relative="1" as="geometry">
            <mxPoint x="627" y="320.03" as="sourcePoint" />
            <mxPoint x="640.6700000000001" y="340" as="targetPoint" />
            <Array as="points">
              <mxPoint x="626.6700000000001" y="299" />
              <mxPoint x="669.6700000000001" y="299" />
              <mxPoint x="669.6700000000001" y="340" />
            </Array>
          </mxGeometry>
        </mxCell>
        <mxCell id="JQfFVvGpdPdvFE5Sovz2-3" style="edgeStyle=orthogonalEdgeStyle;curved=1;rounded=0;orthogonalLoop=1;jettySize=auto;html=1;entryX=1;entryY=0.5;entryDx=0;entryDy=0;strokeWidth=3;fontFamily=Courier New;fontSize=16;strokeColor=#00458A;" edge="1" parent="1">
          <mxGeometry relative="1" as="geometry">
            <mxPoint x="627" y="439.83000000000004" as="sourcePoint" />
            <mxPoint x="640.6700000000001" y="459.80000000000007" as="targetPoint" />
            <Array as="points">
              <mxPoint x="626.6700000000001" y="418.8" />
              <mxPoint x="669.6700000000001" y="418.8" />
              <mxPoint x="669.6700000000001" y="459.8" />
            </Array>
          </mxGeometry>
        </mxCell>
        <mxCell id="JQfFVvGpdPdvFE5Sovz2-4" value="Version" style="whiteSpace=wrap;html=1;fontFamily=Courier New;fontSize=16;strokeWidth=2;fontStyle=2" vertex="1" parent="1">
          <mxGeometry x="560" y="232" width="80" height="25" as="geometry" />
        </mxCell>
        <mxCell id="JQfFVvGpdPdvFE5Sovz2-6" value="a" style="whiteSpace=wrap;html=1;fontFamily=Courier New;fontSize=16;strokeWidth=2;" vertex="1" parent="1">
          <mxGeometry x="480" y="257" width="80" height="25" as="geometry" />
        </mxCell>
        <mxCell id="JQfFVvGpdPdvFE5Sovz2-7" value="&lt;b&gt;6&lt;/b&gt;" style="whiteSpace=wrap;html=1;fontFamily=Courier New;fontSize=16;strokeWidth=2;" vertex="1" parent="1">
          <mxGeometry x="560" y="257" width="80" height="25" as="geometry" />
        </mxCell>
        <mxCell id="JQfFVvGpdPdvFE5Sovz2-8" value="a" style="whiteSpace=wrap;html=1;fontFamily=Courier New;fontSize=16;strokeWidth=2;" vertex="1" parent="1">
          <mxGeometry x="480" y="361" width="80" height="25" as="geometry" />
        </mxCell>
        <mxCell id="JQfFVvGpdPdvFE5Sovz2-9" value="&lt;font color=&quot;#990000&quot;&gt;&lt;b&gt;5&lt;/b&gt;&lt;/font&gt;" style="whiteSpace=wrap;html=1;fontFamily=Courier New;fontSize=16;strokeWidth=2;" vertex="1" parent="1">
          <mxGeometry x="560" y="361" width="80" height="25" as="geometry" />
        </mxCell>
        <mxCell id="JQfFVvGpdPdvFE5Sovz2-10" value="a" style="whiteSpace=wrap;html=1;fontFamily=Courier New;fontSize=16;strokeWidth=2;" vertex="1" parent="1">
          <mxGeometry x="480" y="481" width="80" height="25" as="geometry" />
        </mxCell>
        <mxCell id="JQfFVvGpdPdvFE5Sovz2-11" value="&lt;b&gt;6&lt;/b&gt;" style="whiteSpace=wrap;html=1;fontFamily=Courier New;fontSize=16;strokeWidth=2;" vertex="1" parent="1">
          <mxGeometry x="560" y="481" width="80" height="25" as="geometry" />
        </mxCell>
        <mxCell id="JQfFVvGpdPdvFE5Sovz2-15" value="" style="group" vertex="1" connectable="0" parent="1">
          <mxGeometry x="480" y="550" width="160" height="86.79111227562714" as="geometry" />
        </mxCell>
        <mxCell id="JQfFVvGpdPdvFE5Sovz2-12" value="All Peers" style="rounded=0;whiteSpace=wrap;html=1;fontFamily=Courier New;fontSize=16;strokeWidth=2;" vertex="1" parent="JQfFVvGpdPdvFE5Sovz2-15">
          <mxGeometry width="160" height="40" as="geometry" />
        </mxCell>
        <mxCell id="JQfFVvGpdPdvFE5Sovz2-13" value="VSCC" style="rounded=0;whiteSpace=wrap;html=1;fontFamily=Courier New;fontSize=16;strokeWidth=2;" vertex="1" parent="JQfFVvGpdPdvFE5Sovz2-15">
          <mxGeometry y="40" width="160" height="36.22" as="geometry" />
        </mxCell>
        <mxCell id="sDfAXfX4ur97IPnijIAY-67" value="" style="verticalLabelPosition=bottom;verticalAlign=top;html=1;shape=mxgraph.basic.flash;strokeColor=#990000;strokeWidth=2;fillColor=#FFCCCC;fontFamily=Courier New;fontSize=12;rotation=-15;" parent="JQfFVvGpdPdvFE5Sovz2-15" vertex="1">
          <mxGeometry x="117.78999999999996" y="32.360000000000014" width="29.43" height="51.5" as="geometry" />
        </mxCell>
      </root>
    </mxGraphModel>
  </diagram>
</mxfile>
